<svg width="148" height="30" viewBox="0 0 148 30" fill="none" xmlns="http://www.w3.org/2000/svg">
<path d="M34.6469 19.6389C34.6469 25.5737 38.3024 29.1257 43.734 29.1257C46.4424 29.1257 48.7216 28.3709 49.9944 26.3877V29.1257H54.9524V0.857727H49.802V12.8753C48.6328 10.8921 46.4721 10.0041 43.7637 10.0041C38.4653 9.98933 34.6469 13.6153 34.6469 19.6389ZM49.9649 19.6389C49.9649 23.0281 47.656 25.1445 44.8884 25.1445C42.0172 25.1445 39.812 23.0281 39.812 19.6389C39.812 16.1905 42.032 14.0297 44.8884 14.0297C47.656 14.0297 49.9649 16.2201 49.9649 19.6389Z" fill="black"/>
<path d="M70.9809 21.8293C70.3889 24.0197 68.8941 25.1149 66.5409 25.1149C63.8029 25.1149 61.5533 23.4573 61.4941 20.5269H74.4737C74.6365 19.8017 74.7105 19.0321 74.7105 18.1885C74.7105 12.9345 71.1289 9.97449 65.8453 9.97449C60.2065 9.97449 56.3289 13.9853 56.3289 19.4317C56.3289 25.4997 60.6061 29.1405 66.5261 29.1405C70.9957 29.1405 74.0297 27.2757 75.3617 23.5609L70.9809 21.8293ZM61.4941 17.0933C61.9825 14.9769 63.7437 13.7337 65.8601 13.7337C68.1689 13.7337 69.7377 14.9769 69.7377 16.9305L69.7081 17.0933H61.4941Z" fill="black"/>
<path d="M90.0875 21.8293C89.4955 24.0197 88.0007 25.1149 85.6475 25.1149C82.9095 25.1149 80.6599 23.4573 80.6007 20.5269H93.5803C93.7431 19.8017 93.8171 19.0321 93.8171 18.1885C93.8171 12.9345 90.2355 9.97449 84.9519 9.97449C79.3131 9.97449 75.4355 13.9853 75.4355 19.4317C75.4355 25.4997 79.7127 29.1405 85.6327 29.1405C90.1023 29.1405 93.1363 27.2757 94.4683 23.5609L90.0875 21.8293ZM80.6007 17.0933C81.0891 14.9769 82.8503 13.7337 84.9667 13.7337C87.2755 13.7337 88.8443 14.9769 88.8443 16.9305L88.8147 17.0933H80.6007Z" fill="black"/>
<path d="M111.992 29.1553V24.4933H101.173L111.696 14.2517V9.98932H95.0456V14.4293H105.213L94.72 24.7153V29.1553H111.992Z" fill="black"/>
<path d="M127.043 21.8293C126.451 24.0197 124.956 25.1149 122.603 25.1149C119.865 25.1149 117.616 23.4573 117.556 20.5269H130.536C130.699 19.8017 130.773 19.0321 130.773 18.1885C130.773 12.9345 127.191 9.97449 121.908 9.97449C116.269 9.97449 112.391 13.9853 112.391 19.4317C112.391 25.4997 116.668 29.1405 122.588 29.1405C127.058 29.1405 130.092 27.2757 131.424 23.5609L127.043 21.8293ZM117.556 17.0933C118.045 14.9769 119.806 13.7337 121.922 13.7337C124.231 13.7337 125.8 14.9769 125.8 16.9305L125.77 17.0933H117.556Z" fill="black"/>
<path d="M29.3632 9.98932H23.014V13.7041H29.3632V9.98932Z" fill="#40AB5D"/>
<path d="M29.3632 15.1397H23.014V18.8545H29.3632V15.1397Z" fill="url(#paint0_linear_6_30)"/>
<path d="M29.3632 20.2901H23.014V24.0049H29.3632V20.2901Z" fill="url(#paint1_linear_6_30)"/>
<path d="M6.3492 25.4405H0V29.1553H6.3492V25.4405Z" fill="url(#paint2_linear_6_30)"/>
<path d="M14.0156 25.4405H7.66638V29.1553H14.0156V25.4405Z" fill="url(#paint3_linear_6_30)"/>
<path d="M21.6969 25.4405H15.3477V29.1553H21.6969V25.4405Z" fill="url(#paint4_linear_6_30)"/>
<path d="M29.3632 25.4405H23.014V29.1553H29.3632V25.4405Z" fill="url(#paint5_linear_6_30)"/>
<path d="M21.6969 20.2901H15.3477V24.0049H21.6969V20.2901Z" fill="url(#paint6_linear_6_30)"/>
<path d="M14.0156 20.2901H7.66638V24.0049H14.0156V20.2901Z" fill="url(#paint7_linear_6_30)"/>
<path d="M14.0156 15.1397H7.66638V18.8545H14.0156V15.1397Z" fill="url(#paint8_linear_6_30)"/>
<path d="M142.983 16.6049C142.983 16.7973 142.983 17.1525 142.983 17.1525H148C148 17.1525 148 16.2053 148 15.6873C148 12.4017 145.943 10.0189 142.494 10.0189C140.274 10.0189 138.706 11.0993 137.892 12.8901V10.0189H132.712V29.1553H137.892V16.8269C137.892 14.8733 138.942 13.7929 140.556 13.7929C142.036 13.8077 142.983 15.1989 142.983 16.6049Z" fill="black"/>
<defs>
<linearGradient id="paint0_linear_6_30" x1="26.2197" y1="18.8866" x2="26.16" y2="15.0852" gradientUnits="userSpaceOnUse">
<stop stop-color="#358C7B"/>
<stop offset="0.5256" stop-color="#33A65E"/>
</linearGradient>
<linearGradient id="paint1_linear_6_30" x1="22.9207" y1="23.8142" x2="29.4595" y2="20.4825" gradientUnits="userSpaceOnUse">
<stop stop-color="#222B90"/>
<stop offset="1" stop-color="#367B99"/>
</linearGradient>
<linearGradient id="paint2_linear_6_30" x1="0.00116115" y1="27.2993" x2="6.34505" y2="27.2993" gradientUnits="userSpaceOnUse">
<stop stop-color="#FF9900"/>
<stop offset="1" stop-color="#FF8000"/>
</linearGradient>
<linearGradient id="paint3_linear_6_30" x1="7.67345" y1="27.2993" x2="14.0173" y2="27.2993" gradientUnits="userSpaceOnUse">
<stop stop-color="#FF8000"/>
<stop offset="1" stop-color="#CC1953"/>
</linearGradient>
<linearGradient id="paint4_linear_6_30" x1="15.3458" y1="27.2993" x2="21.6897" y2="27.2993" gradientUnits="userSpaceOnUse">
<stop stop-color="#CC1953"/>
<stop offset="1" stop-color="#241284"/>
</linearGradient>
<linearGradient id="paint5_linear_6_30" x1="23.0106" y1="27.2993" x2="29.3545" y2="27.2993" gradientUnits="userSpaceOnUse">
<stop stop-color="#222B90"/>
<stop offset="1" stop-color="#3559A6"/>
</linearGradient>
<linearGradient id="paint6_linear_6_30" x1="15.0954" y1="23.1491" x2="21.9401" y2="21.1476" gradientUnits="userSpaceOnUse">
<stop stop-color="#CC1953"/>
<stop offset="1" stop-color="#241284"/>
</linearGradient>
<linearGradient id="paint7_linear_6_30" x1="7.44765" y1="20.9116" x2="14.2431" y2="23.385" gradientUnits="userSpaceOnUse">
<stop offset="0.00266984" stop-color="#FFCC00"/>
<stop offset="0.9999" stop-color="#CE1938"/>
</linearGradient>
<linearGradient id="paint8_linear_6_30" x1="8.20667" y1="14.5624" x2="13.4841" y2="19.4322" gradientUnits="userSpaceOnUse">
<stop offset="0.00266984" stop-color="#FFD100"/>
<stop offset="1" stop-color="#FD5A22"/>
</linearGradient>
</defs>
</svg>
